<svg width="588" height="513" viewBox="0 0 588 513" fill="none" xmlns="http://www.w3.org/2000/svg">
<g clip-path="url(#clip0)">
<path d="M461.2 142.2C459.8 143.6 461.4 147 463.4 147C465.4 147 467.1 144.5 466.4 142.6C465.7 140.7 462.9 140.5 461.2 142.2Z" fill="black"/>
<path d="M474.4 151.4C473.4 154 474.8 156.2 477.2 155.8C478.9 155.6 479.5 154.8 479.5 153C479.5 151.2 478.9 150.4 477.2 150.2C475.9 150 474.7 150.5 474.4 151.4Z" fill="black"/>
<path d="M450.4 159.4C449.4 162 450.8 164.2 453.2 163.8C454.9 163.6 455.5 162.8 455.5 161C455.5 159.2 454.9 158.4 453.2 158.2C451.9 158 450.7 158.5 450.4 159.4Z" fill="black"/>
<path d="M490.2 158.9C487.9 160.3 489.2 163.5 492 163.5C494 163.5 494.5 163 494.5 161C494.5 158.4 492.5 157.4 490.2 158.9Z" fill="black"/>
<path d="M279.4 162.4C278.4 165 279.8 167.2 282.2 166.8C283.9 166.6 284.5 165.8 284.5 164C284.5 162.2 283.9 161.4 282.2 161.2C280.9 161 279.7 161.5 279.4 162.4Z" fill="black"/>
<path d="M466.4 166.5C465.5 168.8 466.7 171 468.9 171C471 171 472.2 168.8 471.4 166.5C471 165.7 469.9 165 468.9 165C467.8 165 466.7 165.7 466.4 166.5Z" fill="black"/>
<path d="M303 168.5C301.3 170.5 302.5 173 305 173C306.1 173 307.3 172.3 307.6 171.5C308.2 170 306.5 167 305 167C304.6 167 303.7 167.7 303 168.5Z" fill="black"/>
<path d="M503.4 169.4C502.4 172 503.8 174.2 506.2 173.8C507.9 173.6 508.5 172.8 508.5 171C508.5 169.2 507.9 168.4 506.2 168.2C504.9 168 503.7 168.5 503.4 169.4Z" fill="black"/>
<path d="M265.4 172.4C264.4 175 265.8 177.2 268.2 176.8C269.9 176.6 270.5 175.8 270.5 174C270.5 172.2 269.9 171.4 268.2 171.2C266.9 171 265.7 171.5 265.4 172.4Z" fill="black"/>
<path d="M442.4 174.4C440.9 175.6 440.7 176.3 441.6 177.6C443.1 180.1 444.5 180.3 446.4 178.5C447.6 177.3 447.7 176.4 447 174.9C445.7 172.6 445 172.5 442.4 174.4Z" fill="black"/>
<path d="M433.339 170.333C431.839 171.533 431.639 172.233 432.539 173.533C434.039 176.033 435.439 176.233 437.339 174.433C438.539 173.233 438.639 172.333 437.939 170.833C436.639 168.533 435.939 168.433 433.339 170.333Z" fill="black"/>
<path d="M481.1 174.4C479.5 176.4 480.8 179 483.5 179C486.2 179 487.1 177.3 485.8 174.7C484.8 172.7 482.7 172.5 481.1 174.4Z" fill="black"/>
<path d="M288 177.5C287 178.7 287 179.3 288 180.5C288.7 181.3 289.8 182 290.5 182C292.4 182 294.1 179.5 293.4 177.6C292.6 175.6 289.6 175.5 288 177.5Z" fill="black"/>
<path d="M516.6 180.6C515.9 182.5 517.6 185 519.5 185C520.2 185 521.3 184.3 522 183.5C523 182.3 523 181.7 522 180.5C520.4 178.5 517.4 178.6 516.6 180.6Z" fill="black"/>
<path d="M457.4 181.4C456.4 184 457.8 186.2 460.2 185.8C461.9 185.6 462.5 184.8 462.5 183C462.5 181.2 461.9 180.4 460.2 180.2C458.9 180 457.7 180.5 457.4 181.4Z" fill="black"/>
<path d="M312.3 182.7C310.6 183.3 310.7 186.5 312.3 187.9C314.4 189.6 317.9 186.7 316.4 184.4C315.2 182.4 314.1 181.9 312.3 182.7Z" fill="black"/>
<path d="M405.4 183.5C404.5 185.8 405.7 188 408 188C410.5 188 411.7 185.5 410 183.5C408.4 181.6 406.1 181.6 405.4 183.5Z" fill="black"/>
<path d="M495.1 184.4C493.6 186.2 494.7 189 497 189C499.8 189 501.5 186.3 500 184.5C498.4 182.6 496.6 182.6 495.1 184.4Z" fill="black"/>
<path d="M422.4 186.4C420.9 187.6 420.7 188.3 421.6 189.6C423.1 192.1 424.5 192.3 426.4 190.5C427.6 189.3 427.7 188.4 427 186.9C425.7 184.6 425 184.5 422.4 186.4Z" fill="black"/>
<path d="M274.4 187.5C273.5 189.8 274.7 192 276.9 192C279 192 280.2 189.8 279.4 187.5C279 186.7 277.9 186 276.9 186C275.8 186 274.7 186.7 274.4 187.5Z" fill="black"/>
<path d="M473.3 188.7C471.5 189.3 471.7 193.7 473.4 194.3C474.2 194.6 475.6 194.2 476.7 193.5C479.5 191.4 476.6 187.3 473.3 188.7Z" fill="black"/>
<path d="M339.3 189.7C337.5 190.3 337.7 194.7 339.4 195.3C340.2 195.6 341.6 195.2 342.7 194.5C345.5 192.4 342.6 188.3 339.3 189.7Z" fill="black"/>
<path d="M297.1 192.4C295.6 194.2 296.7 197 299 197C301.8 197 303.5 194.3 302 192.5C300.4 190.6 298.6 190.6 297.1 192.4Z" fill="black"/>
<path d="M438 193.4C438 196.3 440.8 197.6 442.8 195.6C444.8 193.6 443.6 191 440.5 191C438.5 191 438 191.5 438 193.4Z" fill="black"/>
<path d="M528.7 192.2C528.1 194 529.8 197 531.5 197C533.2 197 534.9 194 534.3 192.2C534 191.6 532.8 191 531.5 191C530.2 191 529 191.6 528.7 192.2Z" fill="black"/>
<path d="M507.6 195.6C506.7 197.8 509.3 200.5 511.5 199.6C512.5 199.3 513 198.1 512.8 196.8C512.4 193.9 508.6 193.1 507.6 195.6Z" fill="black"/>
<path d="M322.4 197.4C321.4 200 322.8 202.2 325.2 201.8C326.9 201.6 327.5 200.8 327.5 199C327.5 197.2 326.9 196.4 325.2 196.2C323.9 196 322.7 196.5 322.4 197.4Z" fill="black"/>
<path d="M380.3 199.5C378.9 200.6 378.7 201.3 379.6 202.7C381.3 205.5 384.4 205 384.8 201.9C385.2 198.7 383 197.6 380.3 199.5Z" fill="black"/>
<path d="M453.4 199.5C453 200.4 453.4 201.8 454.2 202.6C456.2 204.6 459.2 203.3 458.8 200.6C458.4 198 454.3 197.1 453.4 199.5Z" fill="black"/>
<path d="M486.1 199.3C484.4 201.4 485.8 204.2 488.4 203.8C489.9 203.6 490.5 202.8 490.5 201C490.5 198.2 487.9 197.2 486.1 199.3Z" fill="black"/>
<path d="M396.3 200.6C395.5 202.6 398.4 205.5 400.4 204.7C401.3 204.3 402 202.9 402 201.5C402 199.5 401.5 199 399.5 199C398.1 199 396.7 199.7 396.3 200.6Z" fill="black"/>
<path d="M283.4 202.5C282.5 204.8 283.7 207 286 207C288.5 207 289.7 204.5 288 202.5C286.4 200.6 284.1 200.6 283.4 202.5Z" fill="black"/>
<path d="M362.6 202.5C362.1 203.9 364.4 207 366 207C367.3 207 368.8 203.8 368.3 202.2C367.7 200.5 363.3 200.7 362.6 202.5Z" fill="black"/>
<path d="M414.3 201.7C412.5 202.4 412.7 205.5 414.6 207C415.8 208.1 416.4 208 417.8 206.6C420.3 204.1 417.6 200.3 414.3 201.7Z" fill="black"/>
<path d="M308.3 205.5C306.9 206.6 306.7 207.3 307.6 208.7C309.3 211.5 312.4 211 312.8 207.9C313.2 204.7 311 203.6 308.3 205.5Z" fill="black"/>
<path d="M540.7 204.6C539.5 205.9 539.9 208.8 541.5 209.4C544 210.3 546.1 208.9 545.8 206.6C545.5 204.5 542.1 203.2 540.7 204.6Z" fill="black"/>
<path d="M346.3 206.6C346 207.4 346.4 208.9 347.3 209.7C349.4 211.8 352 210.6 352 207.5C352 205.5 351.5 205 349.5 205C348.1 205 346.7 205.7 346.3 206.6Z" fill="black"/>
<path d="M429.4 207.4C428.4 210 429.8 212.2 432.2 211.8C433.9 211.6 434.5 210.8 434.5 209C434.5 207.2 433.9 206.4 432.2 206.2C430.9 206 429.7 206.5 429.4 207.4Z" fill="black"/>
<path d="M519.7 207.4C518.7 210 520.1 212.1 522.4 211.8C523.9 211.6 524.5 210.8 524.5 209C524.5 206.1 520.7 204.9 519.7 207.4Z" fill="black"/>
<path d="M468 209.4C468 212.3 470.8 213.6 472.8 211.6C474.8 209.6 473.6 207 470.5 207C468.5 207 468 207.5 468 209.4Z" fill="black"/>
<path d="M499 210.5C497.2 212.6 498.5 215.2 501.2 214.8C503.8 214.5 504.9 211.2 502.8 209.9C501 208.7 500.4 208.8 499 210.5Z" fill="black"/>
<path d="M331.4 212.5C330.5 214.8 331.7 217 334 217C336.5 217 337.7 214.5 336 212.5C334.4 210.6 332.1 210.6 331.4 212.5Z" fill="black"/>
<path d="M445.4 214.5C444.6 216.6 445.6 219 447.3 219C449.4 219 451.1 216.5 450.4 214.6C449.6 212.6 446.1 212.5 445.4 214.5Z" fill="black"/>
<path d="M294.2 216.2C292.8 217.6 294.4 221 296.4 221C298.4 221 300.1 218.5 299.4 216.6C298.7 214.7 295.9 214.5 294.2 216.2Z" fill="black"/>
<path d="M376.2 217.2C374.6 218.8 374.7 220.5 376.6 222C378.8 223.9 382 220.8 380.4 218.3C379 216.1 377.7 215.7 376.2 217.2Z" fill="black"/>
<path d="M392.4 217.4C391.4 220 392.8 222.2 395.2 221.8C396.9 221.6 397.5 220.8 397.5 219C397.5 217.2 396.9 216.4 395.2 216.2C393.9 216 392.7 216.5 392.4 217.4Z" fill="black"/>
<path d="M482 218.4C480.2 220.6 481.5 223.2 484.2 222.8C485.9 222.6 486.5 221.8 486.5 220C486.5 217.1 483.9 216.2 482 218.4Z" fill="black"/>
<path d="M551.3 217.7C549.5 218.4 549.7 222.9 551.6 223.7C553.9 224.6 556.7 221.4 555.4 219.3C554.2 217.4 553.1 216.9 551.3 217.7Z" fill="black"/>
<path d="M410 219.4C408.2 221.6 409.5 224.2 412.2 223.8C413.9 223.6 414.5 222.8 414.5 221C414.5 218.1 411.9 217.2 410 219.4Z" fill="black"/>
<path d="M359.2 220.2C356.7 222.7 359.2 226.6 362.4 225.4C364.5 224.6 364.5 220.4 362.4 219.6C360.4 218.8 360.6 218.8 359.2 220.2Z" fill="black"/>
<path d="M531.2 220.2C529.6 221.8 529.7 223.5 531.6 225C533.8 226.9 537 223.8 535.4 221.3C534 219.1 532.7 218.7 531.2 220.2Z" fill="black"/>
<path d="M316.4 221.5C316 222.4 316.4 223.8 317.3 224.7C319.4 226.8 322.2 225.6 321.8 222.8C321.4 220 317.3 219 316.4 221.5Z" fill="black"/>
<path d="M459.3 223.6C458.5 225.7 461.2 228.2 463.3 227.4C464.2 227.1 465 225.7 465 224.4C465 222.5 464.5 222 462.5 222C461.1 222 459.7 222.7 459.3 223.6Z" fill="black"/>
<path d="M509.7 223.2C509.1 225 510.8 228 512.4 228C514.4 228 516.1 225.5 515.4 223.6C514.7 221.7 510.4 221.4 509.7 223.2Z" fill="black"/>
<path d="M426.1 224.4C424.6 226.2 425.7 229 428 229C430.8 229 432.5 226.3 431 224.5C429.4 222.6 427.6 222.6 426.1 224.4Z" fill="black"/>
<path d="M342.4 226.4C341.4 229 342.8 231.2 345.2 230.8C346.9 230.6 347.5 229.8 347.5 228C347.5 226.2 346.9 225.4 345.2 225.2C343.9 225 342.7 225.5 342.4 226.4Z" fill="black"/>
<path d="M494 230.4C492.2 232.6 493.5 235.2 496.2 234.8C497.9 234.6 498.5 233.8 498.5 232C498.5 229.1 495.9 228.2 494 230.4Z" fill="black"/>
<path d="M303.4 231.5C302.5 233.8 303.7 236 305.9 236C308.2 236 309.4 233.2 307.9 231.4C306.4 229.6 304.1 229.6 303.4 231.5Z" fill="black"/>
<path d="M441.4 232.5C440.6 234.6 441.6 237 443.3 237C445.3 237 447.3 234.3 446.6 232.5C445.9 230.6 442.1 230.5 441.4 232.5Z" fill="black"/>
<path d="M473.2 233.2C471.5 234.9 471.7 236.8 473.8 237.9C475.1 238.6 476.1 238.5 476.8 237.8C478.5 236.1 478.3 233.3 476.4 232.6C474.4 231.8 474.6 231.8 473.2 233.2Z" fill="black"/>
<path d="M559.1 233.3C557.4 235.4 558.8 238 561.7 238C563.8 238 564.1 237.6 563.8 235.3C563.5 232.2 560.9 231.2 559.1 233.3Z" fill="black"/>
<path d="M327.4 234.5C326.5 236.8 327.7 239 330 239C332.5 239 333.7 236.5 332 234.5C330.4 232.6 328.1 232.6 327.4 234.5Z" fill="black"/>
<path d="M384.2 234.7C382.3 238.5 386.3 240.8 389 237.5C390 236.3 390 235.7 389 234.5C387.3 232.5 385.3 232.6 384.2 234.7Z" fill="black"/>
<path d="M401.1 235.8C400.5 236.9 400.5 238.2 401.1 239.3C402.3 241.4 403.4 241.5 405.4 239.4C406.6 238.2 406.7 237.4 406 235.9C404.7 233.5 402.4 233.4 401.1 235.8Z" fill="black"/>
<path d="M539.4 235.5C539 236.4 539.4 237.8 540.2 238.6C542.2 240.6 545.2 239.3 544.8 236.6C544.4 234 540.3 233.1 539.4 235.5Z" fill="black"/>
<path d="M368.2 235.9C365.9 237.3 367.2 240.5 370 240.5C371.6 240.5 372.6 239.9 372.8 238.6C373.1 237 371.6 235 370 235C369.7 235 368.9 235.4 368.2 235.9Z" fill="black"/>
<path d="M520.4 236.5C519.5 238.8 520.7 241 523 241C525.5 241 526.7 238.5 525 236.5C523.4 234.6 521.1 234.6 520.4 236.5Z" fill="black"/>
<path d="M418.3 238.7C416.5 239.4 416.7 242.5 418.6 244C419.8 245.1 420.4 245 421.8 243.6C424.3 241.1 421.6 237.3 418.3 238.7Z" fill="black"/>
<path d="M351.7 240.7C350.4 241.9 351 245.8 352.5 246.4C353.9 246.9 357 244.7 357 243.1C357 241 353.1 239.2 351.7 240.7Z" fill="black"/>
<path d="M456.3 240.7C454.4 241.4 454.7 245.7 456.7 246.4C459.1 247.4 461.8 244.4 460.4 242.3C459.2 240.4 458.1 239.9 456.3 240.7Z" fill="black"/>
<path d="M505.2 243.2C503.5 244.9 503.7 248 505.5 248.6C507.3 249.3 510 247.4 510 245.4C510 243.4 506.6 241.8 505.2 243.2Z" fill="black"/>
<path d="M314 245.5C313 246.7 313 247.3 314 248.5C314.7 249.3 315.8 250 316.5 250C318.4 250 320.1 247.5 319.4 245.6C318.6 243.6 315.6 243.5 314 245.5Z" fill="black"/>
<path d="M484.4 246.5C483.6 248.6 484.6 251 486.3 251C488.3 251 490.3 248.3 489.6 246.5C488.9 244.6 485.1 244.5 484.4 246.5Z" fill="black"/>
<path d="M432.4 247.5C432 248.4 432.4 249.8 433.2 250.6C435.2 252.6 438.2 251.3 437.8 248.6C437.4 246 433.3 245.1 432.4 247.5Z" fill="black"/>
<path d="M337.2 248.9C335.1 250.2 336.2 253.5 338.8 253.8C341.5 254.2 342.8 251.6 341 249.5C339.6 247.8 339 247.7 337.2 248.9Z" fill="black"/>
<path d="M548.7 249.2C546.6 250.3 546.5 252.3 548.4 253.9C550.4 255.5 553 254.2 553 251.5C553 248.8 551.1 247.8 548.7 249.2Z" fill="black"/>
<path d="M566.4 249.4C565.4 252 566.8 254.2 569.2 253.8C570.9 253.6 571.5 252.8 571.5 251C571.5 249.2 570.9 248.4 569.2 248.2C567.9 248 566.7 248.5 566.4 249.4Z" fill="black"/>
<path d="M529.7 250.2C527.6 251.3 527.5 253.3 529.4 254.9C531.4 256.5 534 255.2 534 252.5C534 249.8 532.1 248.8 529.7 250.2Z" fill="black"/>
<path d="M376.2 252.2C373.7 254.7 376.2 258.6 379.4 257.4C381.5 256.6 381.5 252.4 379.4 251.6C377.4 250.8 377.6 250.8 376.2 252.2Z" fill="black"/>
<path d="M392.4 252.5C392 253.4 392.4 254.8 393.3 255.7C395.4 257.8 398.2 256.6 397.8 253.8C397.4 251 393.3 250 392.4 252.5Z" fill="black"/>
<path d="M468 253.5C466.2 255.6 467.5 258.2 470.2 257.8C472.8 257.5 473.9 254.2 471.8 252.9C470 251.7 469.4 251.8 468 253.5Z" fill="black"/>
<path d="M408.7 255.4C407.7 258 409.1 260.1 411.4 259.8C412.9 259.6 413.5 258.8 413.5 257C413.5 254.1 409.7 252.9 408.7 255.4Z" fill="black"/>
<path d="M359.4 257.5C359 258.4 359.4 259.8 360.2 260.6C362.2 262.6 365.2 261.3 364.8 258.6C364.4 256 360.3 255.1 359.4 257.5Z" fill="black"/>
<path d="M446.7 256.6C445.5 257.9 445.9 260.8 447.5 261.4C450 262.3 452.1 260.9 451.8 258.6C451.5 256.5 448.1 255.2 446.7 256.6Z" fill="black"/>
<path d="M513.4 258.5C512.6 260.6 513.6 263 515.3 263C516.1 263 517.3 262.3 518 261.5C519 260.3 519 259.7 518 258.5C517.3 257.7 516.1 257 515.3 257C514.6 257 513.7 257.7 513.4 258.5Z" fill="black"/>
<path d="M494.2 259.7C492.9 262.3 493.8 264 496.5 264C497.8 264 499 263.4 499.3 262.7C499.9 261 498.2 258 496.5 258C495.7 258 494.7 258.8 494.2 259.7Z" fill="black"/>
<path d="M322.6 260.6C321.9 262.5 323.6 265 325.5 265C327.4 265 329.1 262.5 328.4 260.6C328.1 259.7 326.8 259 325.5 259C324.2 259 322.9 259.7 322.6 260.6Z" fill="black"/>
<path d="M423.6 262.6C422.7 264.8 425.3 267.5 427.5 266.6C428.5 266.3 429 265.1 428.8 263.8C428.4 260.9 424.6 260.1 423.6 262.6Z" fill="black"/>
<path d="M345.1 264.8C343.9 267 345.4 269 348.1 269C350.6 269 351.3 267.4 350 265C348.7 262.5 346.4 262.4 345.1 264.8Z" fill="black"/>
<path d="M554.4 265.5C553.5 267.8 554.7 270 557 270C559.5 270 560.7 267.5 559 265.5C557.4 263.6 555.1 263.6 554.4 265.5Z" fill="black"/>
<path d="M572.7 264.6C571.5 265.9 571.9 268.8 573.5 269.4C576 270.3 578.1 268.9 577.8 266.6C577.5 264.5 574.1 263.2 572.7 264.6Z" fill="black"/>
<path d="M536 266.5C534.9 267.8 534.9 268.4 536.3 269.7C538.4 271.8 541.2 270.6 540.8 267.8C540.4 265 537.8 264.3 536 266.5Z" fill="black"/>
<path d="M477.7 267.2C477.1 269 478.8 272 480.4 272C482.4 272 484.1 269.5 483.4 267.6C482.7 265.7 478.4 265.4 477.7 267.2Z" fill="black"/>
<path d="M388.4 269.4C387.4 272 388.8 274.2 391.2 273.8C392.9 273.6 393.5 272.8 393.5 271C393.5 269.2 392.9 268.4 391.2 268.2C389.9 268 388.7 268.5 388.4 269.4Z" fill="black"/>
<path d="M458.4 269.5C457.6 271.6 458.6 274 460.3 274C462.3 274 464.3 271.3 463.6 269.5C462.9 267.6 459.1 267.5 458.4 269.5Z" fill="black"/>
<path d="M371.4 271.4C370.4 274 371.8 276.2 374.2 275.8C375.9 275.6 376.5 274.8 376.5 273C376.5 271.2 375.9 270.4 374.2 270.2C372.9 270 371.7 270.5 371.4 271.4Z" fill="black"/>
<path d="M405.1 272.3C403.4 274.4 404.8 277.2 407.4 276.8C408.9 276.6 409.5 275.8 409.5 274C409.5 271.2 406.9 270.2 405.1 272.3Z" fill="black"/>
<path d="M437.4 272.5C436.6 274.6 437.6 277 439.3 277C441.3 277 443.3 274.3 442.6 272.5C441.9 270.6 438.1 270.5 437.4 272.5Z" fill="black"/>
<path d="M521.2 273.2C519.6 274.8 519.7 276.5 521.4 277.9C523.2 279.4 526 278.2 526 275.9C526 273.5 522.7 271.7 521.2 273.2Z" fill="black"/>
<path d="M502 274.5C500.5 276.3 501.3 278.8 503.6 279.7C506 280.6 508.2 277.3 506.9 274.9C505.7 272.6 503.7 272.5 502 274.5Z" fill="black"/>
<path d="M332.4 275.5C331.5 277.8 332.7 280 334.9 280C337.4 280 338.3 278.6 337.5 276C336.8 273.7 333.2 273.3 332.4 275.5Z" fill="black"/>
<path d="M356 278.5C355 279.7 355 280.3 356 281.5C356.7 282.3 357.8 283 358.5 283C360.4 283 362.1 280.5 361.4 278.6C360.6 276.6 357.6 276.5 356 278.5Z" fill="black"/>
<path d="M420 280.5C418.5 282.3 420.2 285 423 285C425.3 285 426.4 282.2 424.9 280.4C423.4 278.6 421.6 278.6 420 280.5Z" fill="black"/>
<path d="M560.3 280.7C558.5 281.4 558.7 284.5 560.6 286C561.8 287.1 562.4 287 563.8 285.6C566.3 283.1 563.6 279.3 560.3 280.7Z" fill="black"/>
<path d="M577.1 281.4C575.5 283.4 576.8 286 579.5 286C580.8 286 582.1 285.3 582.4 284.4C583.1 282.5 581.4 280 579.5 280C578.8 280 577.7 280.6 577.1 281.4Z" fill="black"/>
<path d="M486 282.5C484.5 284.4 486.3 287 489.1 287C491.4 287 492.3 285.5 491.5 283C490.8 280.6 487.8 280.4 486 282.5Z" fill="black"/>
<path d="M541.7 281.6C540.3 283.1 541.1 285.9 543.1 286.5C545.6 287.3 547.3 285.9 546.8 283.4C546.5 281.5 543 280.3 541.7 281.6Z" fill="black"/>
<path d="M467.4 283.4C466.4 286 467.8 288.2 470.2 287.8C471.9 287.6 472.5 286.8 472.5 285C472.5 283.2 471.9 282.4 470.2 282.2C468.9 282 467.7 282.5 467.4 283.4Z" fill="black"/>
<path d="M448.7 284.5C447 286.2 447.3 288.5 449.4 289.3C451.5 290.1 453.2 288.4 452.8 286C452.4 283.1 450.7 282.4 448.7 284.5Z" fill="black"/>
<path d="M380 287.5C379 288.7 379 289.3 380 290.5C381.7 292.5 383.7 292.4 384.9 290.2C386.7 286.8 382.5 284.5 380 287.5Z" fill="black"/>
<path d="M396.4 288.5C395.6 290.6 396.6 293 398.3 293C400.3 293 402.3 290.3 401.6 288.5C400.9 286.6 397.1 286.5 396.4 288.5Z" fill="black"/>
<path d="M343 289.5C342 290.7 342 291.3 343 292.5C345.6 295.7 349.8 293.3 348.4 289.5C348 288.7 347 288 346 288C345 288 343.7 288.7 343 289.5Z" fill="black"/>
<path d="M508.2 290.2C506.5 291.9 506.7 293.8 508.9 294.9C510.3 295.7 511.1 295.6 512 294.5C514.6 291.4 511.1 287.3 508.2 290.2Z" fill="black"/>
<path d="M525.5 290C524.3 292 526.1 295.1 528.3 294.8C531.4 294.4 531.4 289.6 528.3 289.2C527.2 289 525.9 289.4 525.5 290Z" fill="black"/>
<path d="M432.1 292.8C430.3 296.2 434.5 298.5 437 295.5C438 294.3 438 293.7 437 292.5C435.3 290.5 433.3 290.6 432.1 292.8Z" fill="black"/>
<path d="M364.4 293.5C364 294.4 364.4 295.8 365.3 296.7C367.4 298.8 370.2 297.6 369.8 294.8C369.4 292 365.3 291 364.4 293.5Z" fill="black"/>
<path d="M411.7 294.7C411.3 295 411 296.4 411 297.7C411 299.5 411.6 300 413.4 300C414.7 300 416.1 299.3 416.4 298.4C417.5 295.6 413.7 292.7 411.7 294.7Z" fill="black"/>
<path d="M474.4 298.4C472.4 299.9 473 302.7 475.6 303.7C477.6 304.5 480.3 301.8 479.5 299.8C478.6 297.5 476.5 296.9 474.4 298.4Z" fill="black"/>
<path d="M492.1 298.3C490.4 300.4 491.8 303.2 494.4 302.8C495.9 302.6 496.5 301.8 496.5 300C496.5 297.2 493.9 296.2 492.1 298.3Z" fill="black"/>
<path d="M546.3 297.7C544.5 298.3 544.7 302.7 546.4 303.3C547.2 303.6 548.6 303.2 549.7 302.5C552.5 300.4 549.6 296.3 546.3 297.7Z" fill="black"/>
<path d="M563 298.5C561.3 300.6 562.5 303 565.4 303C568.2 303 569.1 301.3 567.8 298.7C566.7 296.6 564.7 296.5 563 298.5Z" fill="black"/>
<path d="M580.4 298.5C579.5 300.8 580.7 303 582.9 303C585.4 303 586.3 301.6 585.5 299C584.8 296.7 581.2 296.3 580.4 298.5Z" fill="black"/>
<path d="M456 299.4C454.2 301.6 455.5 304.2 458.2 303.8C459.9 303.6 460.5 302.8 460.5 301C460.5 298.1 457.9 297.2 456 299.4Z" fill="black"/>
<path d="M393.2 304.2C390.7 306.7 393.2 310.6 396.4 309.4C398.5 308.6 398.5 304.4 396.4 303.6C394.4 302.8 394.6 302.8 393.2 304.2Z" fill="black"/>
<path d="M353 306.5C353 309.6 355.6 310.8 357.6 308.8C359.6 306.8 358.3 304 355.4 304C353.5 304 353 304.5 353 306.5Z" fill="black"/>
<path d="M529.3 306.5C527.9 307.6 527.7 308.3 528.6 309.7C530.3 312.5 533.4 312 533.8 308.9C534.2 305.7 532 304.6 529.3 306.5Z" fill="black"/>
<path d="M375.3 307.6C374.5 309.7 377.2 312.2 379.3 311.4C380.2 311.1 381 309.7 381 308.4C381 306.5 380.5 306 378.5 306C377.1 306 375.7 306.7 375.3 307.6Z" fill="black"/>
<path d="M440 307.5C439 308.7 439 309.3 440 310.5C440.7 311.3 441.8 312 442.5 312C444.4 312 446.1 309.5 445.4 307.6C444.6 305.6 441.6 305.5 440 307.5Z" fill="black"/>
<path d="M511.4 307.4C510.4 310 511.8 312.2 514.2 311.8C515.9 311.6 516.5 310.8 516.5 309C516.5 307.2 515.9 306.4 514.2 306.2C512.9 306 511.7 306.5 511.4 307.4Z" fill="black"/>
<path d="M421.5 308C420.3 310 422.1 313.1 424.3 312.8C427.4 312.4 427.4 307.6 424.3 307.2C423.2 307 421.9 307.4 421.5 308Z" fill="black"/>
<path d="M406.1 315.9C405.3 317.4 405.4 318.2 406.5 319.4C408.7 321.6 411.2 320.3 410.8 317.1C410.4 313.9 407.5 313.1 406.1 315.9Z" fill="black"/>
<path d="M460.5 315.4C458.1 317.2 459.2 320 462.4 320C465.2 320 466.1 318.3 464.8 315.7C463.7 313.6 463 313.6 460.5 315.4Z" fill="black"/>
<path d="M477.4 315.5C476.5 317.8 477.7 320 479.9 320C482.4 320 483.3 318.6 482.5 316C481.8 313.7 478.2 313.3 477.4 315.5Z" fill="black"/>
<path d="M495.1 315.4C493.6 317.2 494.7 320 497 320C499.8 320 501.5 317.3 500 315.5C498.4 313.6 496.6 313.6 495.1 315.4Z" fill="black"/>
<path d="M548.2 314.9C546.1 316.2 547.2 319.5 549.8 319.8C552.5 320.2 553.8 317.6 552 315.5C550.6 313.8 550 313.7 548.2 314.9Z" fill="black"/>
<path d="M565 315.4C563.2 317.6 564.5 320.2 567.2 319.8C568.9 319.6 569.5 318.8 569.5 317C569.5 314.1 566.9 313.2 565 315.4Z" fill="black"/>
<path d="M582.1 315.4C580.5 317.4 581.8 320 584.5 320C585.8 320 587.1 319.3 587.4 318.4C588.1 316.5 586.4 314 584.5 314C583.8 314 582.7 314.6 582.1 315.4Z" fill="black"/>
<path d="M348.2 319.9C346.1 321.2 347.2 324.5 349.8 324.8C352.5 325.2 353.8 322.6 352 320.5C350.6 318.8 350 318.7 348.2 319.9Z" fill="black"/>
<path d="M365 320.5C364 321.7 364 322.3 365 323.5C365.7 324.3 366.8 325 367.5 325C369.4 325 371.1 322.5 370.4 320.6C369.6 318.6 366.6 318.5 365 320.5Z" fill="black"/>
<path d="M444.2 323.2C442.5 324.9 442.7 327.7 444.5 328.4C448.1 329.8 450.6 326 447.8 323.2C446.3 321.7 445.7 321.7 444.2 323.2Z" fill="black"/>
<path d="M425.6 324.7C424.7 326.8 427.2 329.3 429.3 328.4C430.2 328.1 431 326.7 431 325.4C431 323.5 430.5 323 428.6 323C427.3 323 425.9 323.8 425.6 324.7Z" fill="black"/>
<path d="M512.4 324.5C512 325.4 512.4 326.8 513.2 327.6C515.2 329.6 518.2 328.3 517.8 325.6C517.4 323 513.3 322.1 512.4 324.5Z" fill="black"/>
<path d="M529.7 324.2C529.1 326 530.8 329 532.4 329C534.4 329 536.1 326.5 535.4 324.6C534.7 322.7 530.4 322.4 529.7 324.2Z" fill="black"/>
<path d="M408.2 332.2C406.6 333.8 406.7 335.5 408.4 336.9C410.1 338.4 412.7 337.4 413.3 335C414.1 331.7 410.6 329.8 408.2 332.2Z" fill="black"/>
<path d="M460.4 332.4C459.4 335 460.8 337.2 463.2 336.8C464.9 336.6 465.5 335.8 465.5 334C465.5 332.2 464.9 331.4 463.2 331.2C461.9 331 460.7 331.5 460.4 332.4Z" fill="black"/>
<path d="M478.1 332.3C476.4 334.4 477.8 337.2 480.4 336.8C481.9 336.6 482.5 335.8 482.5 334C482.5 331.2 479.9 330.2 478.1 332.3Z" fill="black"/>
<path d="M495.1 332.8C493.9 335 495.4 337 498.1 337C500.3 337 501.4 334.2 499.9 332.4C498.3 330.5 496.3 330.7 495.1 332.8Z" fill="black"/>
<path d="M547.4 332.4C546.4 335 547.8 337.2 550.2 336.8C551.9 336.6 552.5 335.8 552.5 334C552.5 332.2 551.9 331.4 550.2 331.2C548.9 331 547.7 331.5 547.4 332.4Z" fill="black"/>
<path d="M565.1 332.3C563.4 334.4 564.8 337 567.7 337C569.8 337 570.1 336.6 569.8 334.3C569.5 331.2 566.9 330.2 565.1 332.3Z" fill="black"/>
<path d="M582.4 332.5C581.5 334.8 582.7 337 585 337C587.5 337 588.7 334.5 587 332.5C585.4 330.6 583.1 330.6 582.4 332.5Z" fill="black"/>
<path d="M348.7 336.7C347.4 337.9 348 340.8 349.7 341.4C351.8 342.2 354.5 339.7 353.7 337.6C353.1 336 349.9 335.4 348.7 336.7Z" fill="black"/>
<path d="M367 338.5C367 341.6 369.6 342.8 371.6 340.8C373.6 338.8 372.3 336 369.4 336C367.5 336 367 336.5 367 338.5Z" fill="black"/>
<path d="M423.5 340C422.3 342 424.1 345.1 426.3 344.8C429.4 344.4 429.4 339.6 426.3 339.2C425.2 339 423.9 339.4 423.5 340Z" fill="black"/>
<path d="M442.2 340.2C440.6 341.8 440.7 343.5 442.4 344.9C444.2 346.4 447 345.3 447 343.1C447 341.4 445.2 339 444 339C443.7 339 442.9 339.5 442.2 340.2Z" fill="black"/>
<path d="M438.14 349.2C436.54 350.8 436.64 352.5 438.34 353.9C440.14 355.4 442.94 354.3 442.94 352.1C442.94 350.4 441.14 348 439.94 348C439.64 348 438.84 348.5 438.14 349.2Z" fill="black"/>
<path d="M416.14 349.2C414.54 350.8 414.64 352.5 416.34 353.9C418.14 355.4 420.94 354.3 420.94 352.1C420.94 350.4 419.14 348 417.94 348C417.64 348 416.84 348.5 416.14 349.2Z" fill="black"/>
<path d="M512.5 340.6C511.4 341.8 511.3 342.6 512 344.1C513.2 346.3 515.3 346.6 516.9 344.6C519.4 341.6 515.3 337.9 512.5 340.6Z" fill="black"/>
<path d="M506.944 349.936C505.844 351.136 505.744 351.936 506.444 353.436C507.644 355.636 509.744 355.936 511.344 353.936C513.844 350.936 509.744 347.236 506.944 349.936Z" fill="black"/>
<path d="M530.2 337.2C528.5 338.9 528.7 341.7 530.6 342.4C532.5 343.1 535 341.4 535 339.4C535 337.4 531.6 335.8 530.2 337.2Z" fill="black"/>
<path d="M523.159 348.529C521.459 350.229 521.659 353.029 523.559 353.729C525.459 354.429 527.959 352.729 527.959 350.729C527.959 348.729 524.559 347.129 523.159 348.529Z" fill="black"/>
<path d="M397.7 345.7C396.5 346.8 397 349.8 398.4 350.3C400.5 351.1 403.4 348.6 402.7 346.6C402.1 345 398.9 344.4 397.7 345.7Z" fill="black"/>
<path d="M380.6 347.5C378.9 349.2 379.4 351.5 381.6 352.4C385.1 353.8 387.5 349.9 384.8 347.2C383.2 345.6 382.5 345.7 380.6 347.5Z" fill="black"/>
<path d="M458.2 347.9C456.1 349.2 457.2 352.5 459.8 352.8C462.5 353.2 463.8 350.6 462 348.5C460.6 346.8 460 346.7 458.2 347.9Z" fill="black"/>
<path d="M475.7 348.6C475.3 349 475 350.2 475 351.2C475 352.7 475.6 353.1 477.8 352.8C479.7 352.6 480.5 351.9 480.5 350.5C480.5 348.5 477.2 347.2 475.7 348.6Z" fill="black"/>
<path d="M493.1 349.9C491.9 352.1 492.6 353 495.6 353C498.5 353 499.5 351.4 498 349.5C496.3 347.5 494.3 347.6 493.1 349.9Z" fill="black"/>
<path d="M545.6 349.6C544.7 351.8 545.7 353 548.5 353C551.4 353 552.6 351.4 551 349.5C549.4 347.5 546.4 347.6 545.6 349.6Z" fill="black"/>
<path d="M563.7 348.7C563.3 349 563 350.2 563 351.2C563 352.5 563.8 353 566 353C569.1 353 569.5 352.4 568.4 349.6C567.8 348 564.9 347.4 563.7 348.7Z" fill="black"/>
<path d="M581 349.5C579.5 351.4 580.5 353 583.4 353C586.4 353 587.1 352.1 585.9 349.9C584.7 347.6 582.7 347.5 581 349.5Z" fill="black"/>
<path d="M357.3 350.7C354.9 351.6 356 353 359.1 353C361.8 353 362.1 352.8 361 351.5C359.7 349.9 359.3 349.8 357.3 350.7Z" fill="black"/>
<circle cx="360" cy="186" r="3" fill="black"/>
<circle cx="376" cy="182" r="3" fill="black"/>
<circle cx="392" cy="182" r="3" fill="black"/>
<circle cx="327" cy="175" r="3" fill="black"/>
<circle cx="342" cy="169" r="3" fill="black"/>
<circle cx="359" cy="164" r="3" fill="black"/>
<circle cx="376" cy="162" r="3" fill="black"/>
<circle cx="395" cy="162" r="3" fill="black"/>
<circle cx="410" cy="164" r="3" fill="black"/>
<circle cx="320" cy="159" r="3" fill="black"/>
<circle cx="335" cy="150" r="3" fill="black"/>
<circle cx="351" cy="146" r="3" fill="black"/>
<circle cx="368" cy="143" r="3" fill="black"/>
<circle cx="384" cy="143" r="3" fill="black"/>
<circle cx="399" cy="143" r="3" fill="black"/>
<circle cx="423" cy="167" r="3" fill="black"/>
<circle cx="417" cy="147" r="3" fill="black"/>
<circle cx="435" cy="153" r="3" fill="black"/>
<circle cx="293" cy="153" r="3" fill="black"/>
<circle cx="307" cy="144" r="3" fill="black"/>
<circle cx="323" cy="136" r="3" fill="black"/>
<circle cx="342" cy="130" r="3" fill="black"/>
<circle cx="361" cy="126" r="3" fill="black"/>
<circle cx="378" cy="125" r="3" fill="black"/>
<circle r="3" transform="matrix(-1 0 0 1 448 138)" fill="black"/>
<circle r="3" transform="matrix(-1 0 0 1 431 132)" fill="black"/>
<circle r="3" transform="matrix(-1 0 0 1 414 127)" fill="black"/>
<circle r="3" transform="matrix(-1 0 0 1 395 125)" fill="black"/>
</g>
<ellipse cx="177" cy="334" rx="177" ry="179" fill="black"/>
<defs>
<clipPath id="clip0">
<rect width="452" height="353" fill="white" transform="translate(136)"/>
</clipPath>
</defs>
</svg>
